<svg version="1.1" id="Layer_1" xmlns="http://www.w3.org/2000/svg" xmlns:xlink="http://www.w3.org/1999/xlink" x="0px" y="0px"
	 width="100%" viewBox="0 0 314 75" enable-background="new 0 0 314 75" xml:space="preserve">
<path fill="#FDFDFD" opacity="1.000000" stroke="none" 
	d="
M237.000000,1.000000 
	C262.972565,1.000000 288.945160,1.000000 314.958862,1.000000 
	C314.958862,25.946144 314.958862,50.892372 314.958862,76.000000 
	C227.979172,76.000000 140.958252,76.000000 53.493797,75.653175 
	C49.950581,71.840630 46.354652,68.693092 43.876770,64.828659 
	C40.778118,59.996090 36.942509,58.667091 31.444990,59.010357 
	C22.747265,59.553452 16.417999,55.235832 13.269483,47.147343 
	C9.890605,38.467056 9.741546,29.553362 13.072320,20.871819 
	C18.712986,6.169625 35.695446,3.582393 45.945873,15.496033 
	C47.312714,17.084652 50.061138,17.484570 52.257225,18.474396 
	C54.040440,12.792686 52.471268,9.262067 48.679478,7.074696 
	C44.631847,4.739740 40.241013,2.999729 36.000000,1.000000 
	C98.687561,1.000000 161.375122,1.000000 224.431091,1.359556 
	C222.183105,2.743832 219.420975,3.501679 216.974396,4.837449 
	C203.180298,12.368656 197.588608,33.239285 204.926498,49.363403 
	C211.692123,64.230087 228.673187,70.218895 245.670898,63.732979 
	C252.860199,60.989708 253.178162,60.428070 252.063965,52.221703 
	C249.193481,53.845524 246.489838,55.705490 243.535858,56.989456 
	C229.913940,62.910275 215.698746,57.399399 212.455353,44.357300 
	C211.052567,38.716438 210.850082,32.404228 211.725586,26.643673 
	C213.850021,12.665270 224.250992,5.791173 238.126678,8.885215 
	C242.978821,9.967156 247.487885,12.587555 252.060272,14.467027 
	C253.307922,7.221048 252.985809,6.490428 246.188171,3.912900 
	C243.188568,2.775499 240.066483,1.961059 237.000000,1.000000 
M274.036926,9.589724 
	C274.036926,7.178249 274.036926,4.766774 274.036926,2.435463 
	C270.865204,2.435463 268.435455,2.435463 265.911316,2.435463 
	C265.911316,23.374046 265.911316,44.042717 265.911316,64.684647 
	C268.770386,64.684647 271.323975,64.684647 274.036621,64.684647 
	C274.036621,46.434410 274.036621,28.500011 274.036926,9.589724 
M305.109314,42.501167 
	C305.109314,49.914597 305.109314,57.328030 305.109314,64.704315 
	C308.035309,64.704315 310.598816,64.704315 312.900940,64.704315 
	C312.900940,43.726486 312.900940,23.054716 312.900940,2.441638 
	C310.079803,2.441638 307.670532,2.441638 305.109314,2.441638 
	C305.109314,15.646342 305.109314,28.573593 305.109314,42.501167 
M112.117264,60.328159 
	C112.183113,61.778320 112.248962,63.228485 112.312943,64.637497 
	C115.320206,64.637497 118.014442,64.637497 120.557114,64.637497 
	C120.557114,47.876446 120.557114,31.502069 120.557114,15.269293 
	C117.635620,15.269293 115.038780,15.269293 112.117264,15.269293 
	C112.117264,30.157961 112.117264,44.759083 112.117264,60.328159 
M98.561409,2.151305 
	C95.773781,2.151305 92.986153,2.151305 90.365852,2.151305 
	C90.365852,4.929776 90.365852,7.156924 90.365852,8.908411 
	C108.167534,8.908411 125.563255,8.908411 143.108948,8.908411 
	C142.992065,6.367579 142.902985,4.431058 142.798096,2.150678 
	C128.149887,2.150678 113.848785,2.150678 98.561409,2.151305 
M160.556335,2.122441 
	C157.466110,2.122441 154.375885,2.122441 151.318756,2.122441 
	C151.318756,4.815022 151.318756,6.744988 151.318756,9.134491 
	C164.599686,9.134491 177.640976,9.134491 190.675201,9.134491 
	C190.675201,6.783567 190.675201,4.689677 190.675201,2.122442 
	C180.786545,2.122442 171.163025,2.122442 160.556335,2.122441 
M152.835251,65.016571 
	C165.738693,65.016571 178.642120,65.016571 191.388733,65.016571 
	C191.388733,62.376785 191.388733,60.452396 191.388733,58.487556 
	C177.854202,58.487556 164.636322,58.487556 150.793243,58.487556 
	C151.219040,60.941795 151.564285,62.931801 152.835251,65.016571 
M188.041321,35.171799 
	C188.696136,32.953785 189.350952,30.735769 190.051498,28.362869 
	C176.429764,28.362869 163.913315,28.362869 151.289948,28.362869 
	C151.289948,30.659901 151.289948,32.585785 151.289948,35.178707 
	C163.347305,35.178707 175.233887,35.178707 188.041321,35.171799 
M73.837296,37.987457 
	C68.419411,38.811649 72.230644,42.342793 71.380806,44.731003 
	C79.093590,44.731003 86.303070,44.731003 93.738358,44.731003 
	C93.738358,42.460999 93.738358,40.421638 93.738358,37.986511 
	C87.270279,37.986511 81.023453,37.986511 73.837296,37.987457 
M284.102661,34.358486 
	C287.702545,34.719315 291.302429,35.080143 295.031250,35.453896 
	C295.031250,32.542839 295.031250,30.483633 295.031250,28.279919 
	C291.301117,28.279919 287.783722,28.279919 284.018311,28.279919 
	C284.018311,30.183538 284.018311,31.801079 284.102661,34.358486 
z"/>
<path fill="#0B0B0B" opacity="1.000000" stroke="none" 
	d="
M35.625000,1.000000 
	C40.241013,2.999729 44.631847,4.739740 48.679478,7.074696 
	C52.471268,9.262067 54.040440,12.792686 52.257225,18.474396 
	C50.061138,17.484570 47.312714,17.084652 45.945873,15.496033 
	C35.695446,3.582393 18.712986,6.169625 13.072320,20.871819 
	C9.741546,29.553362 9.890605,38.467056 13.269483,47.147343 
	C16.417999,55.235832 22.747265,59.553452 31.444990,59.010357 
	C36.942509,58.667091 40.778118,59.996090 43.876770,64.828659 
	C46.354652,68.693092 49.950581,71.840630 53.025139,75.653175 
	C49.969406,76.000000 46.938812,76.000000 43.366619,75.673378 
	C41.725536,74.102310 40.498932,72.947159 39.550381,71.596703 
	C36.693333,67.529121 33.053265,66.048981 27.921404,65.714806 
	C23.187710,65.406563 18.037390,63.618607 14.072325,60.978138 
	C5.033714,54.959015 2.318537,45.362831 1.845641,34.554626 
	C1.856454,25.621923 3.104486,17.151709 9.260814,11.103642 
	C13.614223,6.826790 19.692005,4.305178 25.000000,1.000000 
	C25.750000,1.000000 26.500000,1.000000 27.810047,1.307799 
	C29.913397,1.410399 31.456697,1.205200 33.000000,1.000000 
	C33.750000,1.000000 34.500000,1.000000 35.625000,1.000000 
z"/>
<path fill="#0B0B0B" opacity="1.000000" stroke="none" 
	d="
M236.539368,1.000000 
	C240.066483,1.961059 243.188568,2.775499 246.188171,3.912900 
	C252.985809,6.490428 253.307922,7.221048 252.060272,14.467027 
	C247.487885,12.587555 242.978821,9.967156 238.126678,8.885215 
	C224.250992,5.791173 213.850021,12.665270 211.725586,26.643673 
	C210.850082,32.404228 211.052567,38.716438 212.455353,44.357300 
	C215.698746,57.399399 229.913940,62.910275 243.535858,56.989456 
	C246.489838,55.705490 249.193481,53.845524 252.063965,52.221703 
	C253.178162,60.428070 252.860199,60.989708 245.670898,63.732979 
	C228.673187,70.218895 211.692123,64.230087 204.926498,49.363403 
	C197.588608,33.239285 203.180298,12.368656 216.974396,4.837449 
	C219.420975,3.501679 222.183105,2.743832 224.899750,1.359556 
	C228.692902,1.000000 232.385818,1.000000 236.539368,1.000000 
z"/>
<path fill="#FBFBFB" opacity="1.000000" stroke="none" 
	d="
M1.797936,35.004604 
	C2.318537,45.362831 5.033714,54.959015 14.072325,60.978138 
	C18.037390,63.618607 23.187710,65.406563 27.921404,65.714806 
	C33.053265,66.048981 36.693333,67.529121 39.550381,71.596703 
	C40.498932,72.947159 41.725536,74.102310 42.912510,75.673378 
	C29.074211,76.000000 15.148423,76.000000 1.000000,76.000000 
	C1.000000,62.646595 1.000000,49.291958 1.199457,35.474434 
	C1.398915,35.011547 1.797936,35.004604 1.797936,35.004604 
z"/>
<path fill="#F7F7F7" opacity="1.000000" stroke="none" 
	d="
M1.845641,34.554626 
	C1.797936,35.004604 1.398915,35.011547 1.199457,35.005775 
	C1.000000,23.752874 1.000000,12.505749 1.000000,1.000000 
	C8.685612,1.000000 16.374113,1.000000 24.531307,1.000000 
	C19.692005,4.305178 13.614223,6.826790 9.260814,11.103642 
	C3.104486,17.151709 1.856454,25.621923 1.845641,34.554626 
z"/>
<path fill="#474747" opacity="1.000000" stroke="none" 
	d="
M32.583336,1.000000 
	C31.456697,1.205200 29.913397,1.410399 28.185047,1.307799 
	C29.388889,1.000000 30.777779,1.000000 32.583336,1.000000 
z"/>
<path fill="#030303" opacity="1.000000" stroke="none" 
	d="
M274.036774,10.077669 
	C274.036621,28.500011 274.036621,46.434410 274.036621,64.684647 
	C271.323975,64.684647 268.770386,64.684647 265.911316,64.684647 
	C265.911316,44.042717 265.911316,23.374046 265.911316,2.435463 
	C268.435455,2.435463 270.865204,2.435463 274.036926,2.435463 
	C274.036926,4.766774 274.036926,7.178249 274.036774,10.077669 
z"/>
<path fill="#070707" opacity="1.000000" stroke="none" 
	d="
M305.109314,42.001007 
	C305.109314,28.573593 305.109314,15.646342 305.109314,2.441638 
	C307.670532,2.441638 310.079803,2.441638 312.900940,2.441638 
	C312.900940,23.054716 312.900940,43.726486 312.900940,64.704315 
	C310.598816,64.704315 308.035309,64.704315 305.109314,64.704315 
	C305.109314,57.328030 305.109314,49.914597 305.109314,42.001007 
z"/>
<path fill="#0E0E0E" opacity="1.000000" stroke="none" 
	d="
M112.117264,59.844185 
	C112.117264,44.759083 112.117264,30.157961 112.117264,15.269293 
	C115.038780,15.269293 117.635620,15.269293 120.557114,15.269293 
	C120.557114,31.502069 120.557114,47.876446 120.557114,64.637497 
	C118.014442,64.637497 115.320206,64.637497 112.312943,64.637497 
	C112.248962,63.228485 112.183113,61.778320 112.117264,59.844185 
z"/>
<path fill="#0B0B0B" opacity="1.000000" stroke="none" 
	d="
M99.054550,2.150992 
	C113.848785,2.150678 128.149887,2.150678 142.798096,2.150678 
	C142.902985,4.431058 142.992065,6.367579 143.108948,8.908411 
	C125.563255,8.908411 108.167534,8.908411 90.365852,8.908411 
	C90.365852,7.156924 90.365852,4.929776 90.365852,2.151305 
	C92.986153,2.151305 95.773781,2.151305 99.054550,2.150992 
z"/>
<path fill="#161616" opacity="1.000000" stroke="none" 
	d="
M161.047913,2.122442 
	C171.163025,2.122442 180.786545,2.122442 190.675201,2.122442 
	C190.675201,4.689677 190.675201,6.783567 190.675201,9.134491 
	C177.640976,9.134491 164.599686,9.134491 151.318756,9.134491 
	C151.318756,6.744988 151.318756,4.815022 151.318756,2.122441 
	C154.375885,2.122441 157.466110,2.122441 161.047913,2.122442 
z"/>
<path fill="#0F0F0F" opacity="1.000000" stroke="none" 
	d="
M152.372391,64.969193 
	C151.564285,62.931801 151.219040,60.941795 150.793243,58.487556 
	C164.636322,58.487556 177.854202,58.487556 191.388733,58.487556 
	C191.388733,60.452396 191.388733,62.376785 191.388733,65.016571 
	C178.642120,65.016571 165.738693,65.016571 152.372391,64.969193 
z"/>
<path fill="#060606" opacity="1.000000" stroke="none" 
	d="
M187.580902,35.175255 
	C175.233887,35.178707 163.347305,35.178707 151.289948,35.178707 
	C151.289948,32.585785 151.289948,30.659901 151.289948,28.362869 
	C163.913315,28.362869 176.429764,28.362869 190.051498,28.362869 
	C189.350952,30.735769 188.696136,32.953785 187.580902,35.175255 
z"/>
<path fill="#090909" opacity="1.000000" stroke="none" 
	d="
M74.306961,37.986984 
	C81.023453,37.986511 87.270279,37.986511 93.738358,37.986511 
	C93.738358,40.421638 93.738358,42.460999 93.738358,44.731003 
	C86.303070,44.731003 79.093590,44.731003 71.380806,44.731003 
	C72.230644,42.342793 68.419411,38.811649 74.306961,37.986984 
z"/>
<path fill="#060606" opacity="1.000000" stroke="none" 
	d="
M284.060486,33.888554 
	C284.018311,31.801079 284.018311,30.183538 284.018311,28.279919 
	C287.783722,28.279919 291.301117,28.279919 295.031250,28.279919 
	C295.031250,30.483633 295.031250,32.542839 295.031250,35.453896 
	C291.302429,35.080143 287.702545,34.719315 284.060486,33.888554 
z"/>
</svg>